<svg width="379" height="105" viewBox="0 0 379 105" fill="none" xmlns="http://www.w3.org/2000/svg">
<path d="M378.966 29.8864C378.966 36.2311 377.763 41.6288 375.358 46.0795C372.971 50.5303 369.714 53.9299 365.585 56.2784C361.475 58.608 356.854 59.7727 351.721 59.7727C346.551 59.7727 341.911 58.5985 337.801 56.25C333.691 53.9015 330.443 50.5019 328.057 46.0511C325.67 41.6004 324.477 36.2121 324.477 29.8864C324.477 23.5417 325.67 18.1439 328.057 13.6932C330.443 9.24243 333.691 5.85228 337.801 3.52273C341.911 1.17425 346.551 0 351.721 0C356.854 0 361.475 1.17425 365.585 3.52273C369.714 5.85228 372.971 9.24243 375.358 13.6932C377.763 18.1439 378.966 23.5417 378.966 29.8864ZM366.494 29.8864C366.494 25.7765 365.879 22.3106 364.648 19.4886C363.436 16.6667 361.721 14.5265 359.506 13.0682C357.29 11.6099 354.695 10.8807 351.721 10.8807C348.748 10.8807 346.153 11.6099 343.937 13.0682C341.721 14.5265 339.998 16.6667 338.767 19.4886C337.555 22.3106 336.949 25.7765 336.949 29.8864C336.949 33.9962 337.555 37.4621 338.767 40.2841C339.998 43.1061 341.721 45.2462 343.937 46.7045C346.153 48.1629 348.748 48.892 351.721 48.892C354.695 48.892 357.29 48.1629 359.506 46.7045C361.721 45.2462 363.436 43.1061 364.648 40.2841C365.879 37.4621 366.494 33.9962 366.494 29.8864Z" fill="white"/>
<path d="M306.206 16.7554C306.867 19.0573 304.974 21.1648 302.579 21.1648H298.111C296.118 21.1648 294.514 19.6512 293.716 17.8249C293.572 17.4975 293.415 17.1809 293.244 16.875C292.543 15.6061 291.643 14.5265 290.545 13.6364C289.446 12.7462 288.177 12.0644 286.738 11.5909C285.318 11.1174 283.774 10.8807 282.107 10.8807C279.096 10.8807 276.473 11.6288 274.238 13.125C272.003 14.6023 270.27 16.7614 269.039 19.6023C267.808 22.4242 267.193 25.8523 267.193 29.8864C267.193 34.0341 267.808 37.5189 269.039 40.3409C270.289 43.1629 272.032 45.2936 274.266 46.733C276.501 48.1724 279.086 48.892 282.022 48.892C283.67 48.892 285.194 48.6742 286.596 48.2386C288.016 47.803 289.276 47.1686 290.374 46.3352C291.473 45.483 292.382 44.4508 293.102 43.2386C293.291 42.9284 293.465 42.607 293.624 42.2744C294.461 40.5261 296.047 39.0974 297.986 39.1062L302.588 39.1272C304.98 39.1381 306.852 41.2528 306.092 43.5205C305.711 44.6573 305.235 45.7754 304.664 46.875C303.395 49.3371 301.681 51.5436 299.522 53.4943C297.382 55.4261 294.825 56.9602 291.852 58.0966C288.897 59.214 285.554 59.7727 281.823 59.7727C276.634 59.7727 271.994 58.5985 267.903 56.25C263.831 53.9015 260.611 50.5019 258.244 46.0511C255.895 41.6004 254.721 36.2121 254.721 29.8864C254.721 23.5417 255.914 18.1439 258.301 13.6932C260.687 9.24243 263.926 5.85228 268.016 3.52273C272.107 1.17425 276.71 0 281.823 0C285.194 0 288.319 0.473486 291.198 1.42046C294.096 2.36743 296.662 3.75 298.897 5.56818C301.132 7.36742 302.95 9.57386 304.352 12.1875C305.119 13.5996 305.737 15.1222 306.206 16.7554Z" fill="white"/>
<path d="M231.98 0.795441C234.189 0.795441 235.98 2.5863 235.98 4.79544V54.9773C235.98 57.1864 234.189 58.9773 231.98 58.9773H227.453C226.139 58.9773 224.909 58.3323 224.163 57.2517L200.126 22.4785C200.074 22.403 199.988 22.3579 199.896 22.3579V22.3579C199.742 22.3579 199.617 22.4831 199.617 22.6375V54.9773C199.617 57.1864 197.826 58.9773 195.617 58.9773H191.316C189.106 58.9773 187.316 57.1864 187.316 54.9773V4.79545C187.316 2.58631 189.106 0.795441 191.316 0.795441H196.005C197.323 0.795441 198.557 1.445 199.303 2.53193L223.125 37.2409C223.187 37.332 223.291 37.3863 223.401 37.3863V37.3863C223.586 37.3863 223.736 37.2364 223.736 37.0514V4.79544C223.736 2.5863 225.527 0.795441 227.736 0.795441H231.98Z" fill="white"/>
<path d="M128.799 56.2147C128.263 57.8621 126.727 58.9773 124.995 58.9773H120.331C117.583 58.9773 115.653 56.2697 116.55 53.672L133.873 3.49017C134.43 1.87751 135.948 0.795441 137.654 0.795441H147.804C149.51 0.795441 151.029 1.87831 151.585 3.49182L168.884 53.6736C169.78 56.2711 167.85 58.9773 165.103 58.9773H160.438C158.704 58.9773 157.168 57.861 156.633 56.2125L143.027 14.3071C142.985 14.1782 142.865 14.0909 142.73 14.0909V14.0909C142.594 14.0909 142.474 14.1781 142.432 14.307L128.799 56.2147ZM127.076 40.1079C127.076 37.8988 128.867 36.1079 131.076 36.1079H154.213C156.422 36.1079 158.213 37.8988 158.213 40.1079V41.7102C158.213 43.9194 156.422 45.7102 154.213 45.7102H131.076C128.867 45.7102 127.076 43.9194 127.076 41.7102V40.1079Z" fill="white"/>
<path d="M65.3967 58.9773C63.1876 58.9773 61.3967 57.1864 61.3967 54.9773V4.79545C61.3967 2.58631 63.1876 0.795441 65.3967 0.795441H69.6979C71.907 0.795441 73.6979 2.5863 73.6979 4.79544V44.8352C73.6979 47.0444 75.4887 48.8352 77.6979 48.8352H94.6411C96.8502 48.8352 98.6411 50.6261 98.6411 52.8352V54.9773C98.6411 57.1864 96.8502 58.9773 94.6411 58.9773H65.3967Z" fill="white"/>
<path d="M4 58.9773C1.79086 58.9773 0 57.1864 0 54.9773V4.79545C0 2.58631 1.79086 0.795441 4 0.795441H22.9545C27.3674 0.795441 31.1269 1.63824 34.233 3.32385C37.339 4.99052 39.7064 7.31059 41.3352 10.2841C42.983 13.2386 43.8068 16.6477 43.8068 20.5113C43.8068 24.375 42.9735 27.7841 41.3068 30.7386C39.6402 33.6932 37.2254 35.9943 34.0625 37.642C30.9186 39.2898 27.1117 40.1136 22.642 40.1136H12.0114C9.80223 40.1136 8.01136 38.3228 8.01136 36.1136V34.2557C8.01136 32.0465 9.80223 30.2557 12.0114 30.2557H20.6534C23.0208 30.2557 24.9716 29.8485 26.5057 29.0341C28.0587 28.2007 29.214 27.0549 29.9716 25.5966C30.7481 24.1193 31.1364 22.4242 31.1364 20.5113C31.1364 18.5795 30.7481 16.8939 29.9716 15.4545C29.214 13.9962 28.0587 12.8693 26.5057 12.0739C24.9527 11.2595 22.983 10.8523 20.5966 10.8523H16.3011C14.092 10.8523 12.3011 12.6431 12.3011 14.8523V54.9773C12.3011 57.1864 10.5103 58.9773 8.30114 58.9773H4Z" fill="white"/>
<path d="M215.857 80.8438C214.753 80.8438 213.857 79.9483 213.857 78.8438V77.7727C213.857 76.6682 214.753 75.7727 215.857 75.7727H235.749C236.854 75.7727 237.749 76.6682 237.749 77.7727V78.8438C237.749 79.9483 236.854 80.8438 235.749 80.8438H230.843C229.738 80.8438 228.843 81.7392 228.843 82.8438V102.864C228.843 103.968 227.948 104.864 226.843 104.864H224.763C223.659 104.864 222.763 103.968 222.763 102.864V82.8438C222.763 81.7392 221.868 80.8438 220.763 80.8438H215.857Z" fill="white"/>
<path d="M182.715 104.864C181.611 104.864 180.715 103.968 180.715 102.864V77.7727C180.715 76.6682 181.611 75.7727 182.715 75.7727H192.192C194.389 75.7727 196.264 76.1657 197.817 76.9517C199.38 77.7282 200.568 78.8314 201.383 80.2614C202.207 81.6818 202.618 83.3532 202.618 85.2756C202.618 87.2074 202.202 88.8693 201.368 90.2614C200.535 91.6439 199.328 92.7046 197.746 93.4432C196.174 94.1818 194.271 94.5511 192.036 94.5511H186.351C185.247 94.5511 184.351 93.6557 184.351 92.5511V91.608C184.351 90.5034 185.247 89.608 186.351 89.608H191.042C192.216 89.608 193.191 89.447 193.968 89.125C194.744 88.803 195.322 88.3201 195.701 87.6761C196.089 87.0322 196.283 86.232 196.283 85.2756C196.283 84.3097 196.089 83.4953 195.701 82.8324C195.322 82.1695 194.74 81.6676 193.954 81.3267C193.177 80.9763 192.197 80.8011 191.013 80.8011H188.866C187.761 80.8011 186.866 81.6966 186.866 82.8011V102.864C186.866 103.968 185.97 104.864 184.866 104.864H182.715ZM195.239 91.625C195.97 91.625 196.643 92.0244 196.994 92.6664L202.04 101.905C202.767 103.238 201.803 104.864 200.284 104.864H198.065C197.327 104.864 196.648 104.457 196.301 103.806L191.364 94.5676C190.652 93.2353 191.618 91.625 193.128 91.625H195.239Z" fill="white"/>
<path d="M148.257 103.482C147.989 104.306 147.221 104.864 146.355 104.864H144.023C142.649 104.864 141.684 103.51 142.132 102.211L150.794 77.1201C151.072 76.3138 151.832 75.7727 152.685 75.7727H157.759C158.613 75.7727 159.372 76.3142 159.65 77.1209L168.3 102.212C168.747 103.511 167.782 104.864 166.409 104.864H164.076C163.21 104.864 162.442 104.306 162.174 103.481L155.371 82.5286C155.35 82.4641 155.29 82.4205 155.222 82.4205V82.4205C155.154 82.4205 155.094 82.4641 155.073 82.5285L148.257 103.482ZM147.396 95.429C147.396 94.3244 148.291 93.429 149.396 93.429H160.964C162.068 93.429 162.964 94.3244 162.964 95.429V96.2301C162.964 97.3347 162.068 98.2301 160.964 98.2301H149.396C148.291 98.2301 147.396 97.3347 147.396 96.2301V95.429Z" fill="white"/>
</svg>
