<svg width="310" height="133" viewBox="0 0 310 133" fill="none" xmlns="http://www.w3.org/2000/svg">
<path d="M0 0.979156H27.6667C36.026 0.979156 41.9896 3.68228 45.5625 9.08332C49.1458 14.4896 50.9375 22.3854 50.9375 32.7708C50.9375 43.1771 49.3542 51.0156 46.1875 56.2917C43.0208 61.5729 37.3333 64.2083 29.125 64.2083H20.6042V105.646H0V0.979156ZM21.8125 45.3333C24.3385 45.3333 26.1875 44.8698 27.3542 43.9375C28.5313 42.9948 29.3021 41.6562 29.6667 39.9167C30.0417 38.1667 30.2292 35.6667 30.2292 32.4167C30.2292 28.0312 29.7344 24.8646 28.75 22.9167C27.776 20.9583 25.8333 19.9792 22.9167 19.9792H20.6042V45.3333H21.8125Z" fill="white"/>
<path d="M52.636 105.646V0.979156H73.5943V87.8542H95.1777V105.646H52.636Z" fill="white"/>
<path d="M93.342 105.646L103.446 0.979156H138.905L148.905 105.646H129.03L127.571 88.7083H114.905L113.696 105.646H93.342ZM116.488 72.0208H125.988L121.363 18.7708H120.384L116.488 72.0208Z" fill="white"/>
<path d="M150.354 105.646V0.979156H171.937L181.562 51.0625V0.979156H201.791V105.646H181.312L170.833 53.25V105.646H150.354Z" fill="white"/>
<path d="M230.532 106.625C222.892 106.625 216.772 104.229 212.178 99.4375C207.595 94.6458 205.303 88.0625 205.303 79.6875V31.4375C205.303 21.0365 207.371 13.1979 211.512 7.91667C215.663 2.64063 222.163 0 231.012 0C238.73 0 244.949 2.11458 249.657 6.33333C254.376 10.5573 256.741 16.6458 256.741 24.6042V42.6458H235.887V27.1667C235.887 24.1667 235.517 22.099 234.782 20.9583C234.058 19.8229 232.803 19.25 231.012 19.25C229.147 19.25 227.871 19.9062 227.178 21.2083C226.48 22.5 226.137 24.4115 226.137 26.9375V79.4375C226.137 82.2031 226.538 84.2188 227.345 85.4792C228.163 86.7448 229.387 87.375 231.012 87.375C234.262 87.375 235.887 84.7292 235.887 79.4375V60.5625H256.97V80.2917C256.97 97.849 248.157 106.625 230.532 106.625Z" fill="white"/>
<path d="M284.016 106.625C275.569 106.625 269.152 104.052 264.766 98.8958C260.376 93.7292 258.183 86.474 258.183 77.125V27.2917C258.183 18.2812 260.376 11.4792 264.766 6.89583C269.152 2.30208 275.569 0 284.016 0C292.475 0 298.891 2.30208 303.266 6.89583C307.652 11.4792 309.85 18.2812 309.85 27.2917V77.125C309.85 86.5573 307.652 93.8333 303.266 98.9583C298.891 104.073 292.475 106.625 284.016 106.625ZM284.016 87.375C285.891 87.375 287.147 86.5625 287.787 84.9375C288.438 83.3125 288.766 81.0365 288.766 78.1042V26.9375C288.766 24.6615 288.459 22.8125 287.85 21.3958C287.251 19.9688 286.016 19.25 284.141 19.25C280.652 19.25 278.912 21.8906 278.912 27.1667V78.2292C278.912 81.2292 279.272 83.5104 279.996 85.0625C280.73 86.6042 282.069 87.375 284.016 87.375Z" fill="white"/>
<path d="M113.864 127.008H119.427L116.531 120.946L113.864 127.008ZM118.489 118.8V119.112C118.323 119.112 118.208 119.144 118.156 119.196C118.099 119.253 118.073 119.331 118.073 119.425C118.073 119.524 118.114 119.654 118.198 119.821C118.281 119.977 118.39 120.196 118.531 120.487L123.239 130.217C123.416 130.623 123.573 130.94 123.698 131.175C123.823 131.414 123.906 131.571 123.948 131.654C124.057 131.81 124.161 131.904 124.26 131.946C124.354 131.977 124.495 131.987 124.677 131.987V132.3H121.114V131.987C121.307 131.987 121.437 131.961 121.51 131.904C121.578 131.852 121.614 131.758 121.614 131.633C121.614 131.55 121.583 131.456 121.531 131.342C121.489 131.232 121.411 131.06 121.302 130.821L120.302 128.717H113.052L111.989 131.175C111.875 131.425 111.823 131.607 111.823 131.717C111.823 131.899 111.958 131.987 112.239 131.987V132.3H109.094V131.987C109.219 131.987 109.312 131.982 109.385 131.967C109.469 131.94 109.541 131.883 109.614 131.8C109.698 131.706 109.771 131.581 109.844 131.425C109.927 131.258 110.036 131.029 110.177 130.737L114.76 120.467C114.953 120.081 115.073 119.831 115.114 119.717C115.166 119.607 115.198 119.508 115.198 119.425C115.198 119.331 115.146 119.253 115.052 119.196C114.969 119.144 114.864 119.112 114.739 119.112V118.8H118.489Z" fill="white"/>
<path d="M157.049 124.696C157.935 124.696 158.633 124.529 159.133 124.196C159.633 123.852 159.883 123.279 159.883 122.487C159.883 122.154 159.83 121.862 159.737 121.612C159.638 121.362 159.476 121.164 159.258 121.008C159.034 120.857 158.737 120.748 158.362 120.675C157.987 120.592 157.508 120.55 156.924 120.55H151.403V124.696H157.049ZM157.237 118.8C158.789 118.8 159.971 119.092 160.778 119.675C161.58 120.258 161.987 121.217 161.987 122.55C161.987 123.623 161.695 124.477 161.112 125.112C160.539 125.753 159.622 126.154 158.362 126.321L161.32 130.883C161.58 131.3 161.778 131.592 161.903 131.758C162.039 131.914 162.258 131.987 162.549 131.987H162.591V132.3H158.903V131.987C159.138 131.987 159.284 131.967 159.341 131.925C159.393 131.883 159.424 131.831 159.424 131.758C159.424 131.69 159.383 131.602 159.299 131.487C159.216 131.378 159.122 131.237 159.028 131.071L156.133 126.446H151.403V131.383C151.403 131.565 151.445 131.711 151.528 131.821C151.622 131.935 151.789 131.987 152.028 131.987V132.3H148.633V131.987C148.867 131.987 149.028 131.935 149.112 131.821C149.205 131.711 149.258 131.565 149.258 131.383V119.717C149.258 119.539 149.205 119.394 149.112 119.279C149.028 119.17 148.867 119.112 148.633 119.112V118.8H157.237Z" fill="white"/>
<path d="M186.25 118.133H186.562C186.562 118.373 186.645 118.545 186.812 118.654C186.989 118.753 187.197 118.8 187.437 118.8H198.27C198.854 118.8 199.145 118.581 199.145 118.133H199.437V121.154H199.145C199.145 120.894 199.067 120.717 198.916 120.633C198.776 120.539 198.562 120.487 198.27 120.487H193.937V131.383C193.937 131.566 193.979 131.711 194.062 131.821C194.145 131.935 194.302 131.987 194.541 131.987V132.3H191.145V131.987C191.562 131.987 191.77 131.789 191.77 131.383V120.487H187.458C187.166 120.487 186.942 120.539 186.791 120.633C186.635 120.717 186.562 120.894 186.562 121.154H186.25V118.133Z" fill="white"/>
</svg>
