<svg width="3553" height="3553" viewBox="0 0 3553 3553" fill="none" xmlns="http://www.w3.org/2000/svg">
<path fill-rule="evenodd" clip-rule="evenodd" d="M1575.52 1129C1598.52 1129 1618.55 1141.66 1629.04 1160.39C1636.02 1157.63 1643.63 1156.11 1651.59 1156.11C1681.26 1156.11 1706.01 1177.19 1711.67 1205.18C1721.41 1214.63 1727.46 1227.86 1727.46 1242.5C1727.46 1271.21 1704.18 1294.49 1675.47 1294.49C1666.2 1294.49 1657.51 1292.07 1649.97 1287.83C1639.08 1297.75 1624.6 1303.8 1608.7 1303.8C1589.13 1303.8 1571.7 1294.63 1560.48 1280.35C1549.85 1289.18 1536.2 1294.49 1521.3 1294.49C1487.45 1294.49 1460 1267.05 1460 1233.19C1460 1200.79 1485.14 1174.25 1516.99 1172.04C1524.76 1147.1 1548.03 1129 1575.52 1129Z" fill="white" fill-opacity="0.1"/>
<path fill-rule="evenodd" clip-rule="evenodd" d="M2255.52 1345C2278.52 1345 2298.55 1357.66 2309.04 1376.39C2316.02 1373.63 2323.63 1372.11 2331.59 1372.11C2361.26 1372.11 2386.01 1393.19 2391.67 1421.18C2401.41 1430.63 2407.46 1443.86 2407.46 1458.5C2407.46 1487.21 2384.18 1510.49 2355.47 1510.49C2346.2 1510.49 2337.51 1508.07 2329.97 1503.83C2319.08 1513.75 2304.6 1519.8 2288.7 1519.8C2269.13 1519.8 2251.7 1510.63 2240.48 1496.35C2229.85 1505.18 2216.2 1510.49 2201.3 1510.49C2167.45 1510.49 2140 1483.05 2140 1449.19C2140 1416.79 2165.14 1390.25 2196.99 1388.04C2204.76 1363.1 2228.03 1345 2255.52 1345Z" fill="white" fill-opacity="0.1"/>
<path fill-rule="evenodd" clip-rule="evenodd" d="M1445.78 1517.36C1468.26 1522.21 1485.18 1538.81 1491.48 1559.33C1498.89 1558.1 1506.64 1558.22 1514.43 1559.9C1543.43 1566.16 1563.17 1591.98 1562.81 1620.54C1570.34 1631.83 1573.46 1646.03 1570.37 1660.34C1564.32 1688.41 1536.65 1706.26 1508.58 1700.21C1499.53 1698.25 1491.54 1694.05 1485.07 1688.31C1472.33 1695.72 1456.9 1698.58 1441.36 1695.23C1422.23 1691.1 1407.12 1678.46 1399.16 1662.13C1386.92 1668.53 1372.45 1670.84 1357.89 1667.7C1324.79 1660.56 1303.75 1627.94 1310.89 1594.85C1317.72 1563.17 1347.89 1542.54 1379.49 1547.09C1392.34 1524.35 1418.91 1511.56 1445.78 1517.36Z" fill="white" fill-opacity="0.1"/>
<path fill-rule="evenodd" clip-rule="evenodd" d="M1046.52 2038C1069.52 2038 1089.55 2050.66 1100.04 2069.39C1107.02 2066.63 1114.63 2065.11 1122.59 2065.11C1152.26 2065.11 1177.01 2086.19 1182.67 2114.18C1192.41 2123.63 1198.46 2136.86 1198.46 2151.5C1198.46 2180.21 1175.18 2203.49 1146.47 2203.49C1137.2 2203.49 1128.51 2201.07 1120.97 2196.83C1110.08 2206.75 1095.6 2212.8 1079.7 2212.8C1060.13 2212.8 1042.7 2203.63 1031.48 2189.35C1020.85 2198.18 1007.2 2203.49 992.302 2203.49C958.446 2203.49 931 2176.05 931 2142.19C931 2109.79 956.144 2083.25 987.987 2081.04C995.758 2056.1 1019.03 2038 1046.52 2038Z" fill="white" fill-opacity="0.1"/>
<path fill-rule="evenodd" clip-rule="evenodd" d="M1984.52 2008C2007.52 2008 2027.55 2020.66 2038.04 2039.39C2045.02 2036.63 2052.63 2035.11 2060.59 2035.11C2090.26 2035.11 2115.01 2056.19 2120.67 2084.18C2130.41 2093.63 2136.46 2106.86 2136.46 2121.5C2136.46 2150.21 2113.18 2173.49 2084.47 2173.49C2075.2 2173.49 2066.51 2171.07 2058.97 2166.83C2048.08 2176.75 2033.6 2182.8 2017.7 2182.8C1998.13 2182.8 1980.7 2173.63 1969.48 2159.35C1958.85 2168.18 1945.2 2173.49 1930.3 2173.49C1896.45 2173.49 1869 2146.05 1869 2112.19C1869 2079.79 1894.14 2053.25 1925.99 2051.04C1933.76 2026.1 1957.03 2008 1984.52 2008Z" fill="white" fill-opacity="0.1"/>
<path fill-rule="evenodd" clip-rule="evenodd" d="M964.522 1520C987.516 1520 1007.55 1532.66 1018.04 1551.39C1025.02 1548.63 1032.63 1547.11 1040.59 1547.11C1070.26 1547.11 1095.01 1568.19 1100.67 1596.18C1110.41 1605.63 1116.46 1618.86 1116.46 1633.5C1116.46 1662.21 1093.18 1685.49 1064.47 1685.49C1055.2 1685.49 1046.51 1683.07 1038.97 1678.83C1028.08 1688.75 1013.6 1694.8 997.702 1694.8C978.129 1694.8 960.699 1685.63 949.476 1671.35C938.853 1680.18 925.198 1685.49 910.302 1685.49C876.446 1685.49 849 1658.05 849 1624.19C849 1591.79 874.144 1565.25 905.987 1563.04C913.758 1538.1 937.026 1520 964.522 1520Z" fill="white" fill-opacity="0.1"/>
<path fill-rule="evenodd" clip-rule="evenodd" d="M1528.52 2395C1551.52 2395 1571.55 2407.66 1582.04 2426.39C1589.02 2423.63 1596.63 2422.11 1604.59 2422.11C1634.26 2422.11 1659.01 2443.19 1664.67 2471.18C1674.41 2480.63 1680.46 2493.86 1680.46 2508.5C1680.46 2537.21 1657.18 2560.49 1628.47 2560.49C1619.2 2560.49 1610.51 2558.07 1602.97 2553.83C1592.08 2563.75 1577.6 2569.8 1561.7 2569.8C1542.13 2569.8 1524.7 2560.63 1513.48 2546.35C1502.85 2555.18 1489.2 2560.49 1474.3 2560.49C1440.45 2560.49 1413 2533.05 1413 2499.19C1413 2466.79 1438.14 2440.25 1469.99 2438.04C1477.76 2413.1 1501.03 2395 1528.52 2395Z" fill="white" fill-opacity="0.1"/>
<path fill-rule="evenodd" clip-rule="evenodd" d="M2545.52 1657C2568.52 1657 2588.55 1669.66 2599.04 1688.39C2606.02 1685.63 2613.63 1684.11 2621.59 1684.11C2651.26 1684.11 2676.01 1705.19 2681.67 1733.18C2691.41 1742.63 2697.46 1755.86 2697.46 1770.5C2697.46 1799.21 2674.18 1822.49 2645.47 1822.49C2636.2 1822.49 2627.51 1820.07 2619.97 1815.83C2609.08 1825.75 2594.6 1831.8 2578.7 1831.8C2559.13 1831.8 2541.7 1822.63 2530.48 1808.35C2519.85 1817.18 2506.2 1822.49 2491.3 1822.49C2457.45 1822.49 2430 1795.05 2430 1761.19C2430 1728.79 2455.14 1702.25 2486.99 1700.04C2494.76 1675.1 2518.03 1657 2545.52 1657Z" fill="white" fill-opacity="0.1"/>
<path fill-rule="evenodd" clip-rule="evenodd" d="M1828.82 1368C1860.96 1368 1889.42 1383.77 1906.88 1408C1909.32 1407.79 1911.79 1407.68 1914.29 1407.68C1945.09 1407.68 1972.08 1424.04 1987.03 1448.54C1991.05 1447.76 1995.2 1447.36 1999.45 1447.36C2035.52 1447.36 2064.77 1476.6 2064.77 1512.68C2064.77 1548.75 2035.52 1578 1999.45 1578V1578H1717.41V1578C1671.9 1578 1635 1541.1 1635 1495.59C1635 1450.07 1671.9 1413.17 1717.41 1413.17C1726.93 1413.17 1736.08 1414.79 1744.59 1417.76C1760.96 1388.09 1792.54 1368 1828.82 1368Z" fill="white" fill-opacity="0.1"/>
<path fill-rule="evenodd" clip-rule="evenodd" d="M1473.82 2078C1505.96 2078 1534.42 2093.77 1551.88 2118C1554.32 2117.79 1556.79 2117.68 1559.29 2117.68C1590.09 2117.68 1617.08 2134.04 1632.03 2158.54C1636.05 2157.76 1640.2 2157.36 1644.45 2157.36C1680.52 2157.36 1709.77 2186.6 1709.77 2222.68C1709.77 2258.75 1680.52 2288 1644.45 2288V2288H1362.41V2288C1316.9 2288 1280 2251.1 1280 2205.59C1280 2160.07 1316.9 2123.17 1362.41 2123.17C1371.93 2123.17 1381.08 2124.79 1389.59 2127.76C1405.96 2098.09 1437.54 2078 1473.82 2078Z" fill="white" fill-opacity="0.1"/>
<path fill-rule="evenodd" clip-rule="evenodd" d="M2408.9 1958.34C2441.04 1958.31 2469.51 1974.06 2486.99 1998.27C2489.43 1998.06 2491.9 1997.95 2494.4 1997.94C2525.2 1997.92 2552.2 2014.25 2567.18 2038.74C2571.2 2037.96 2575.35 2037.55 2579.59 2037.55C2615.67 2037.52 2644.94 2066.74 2644.97 2102.81C2645 2138.89 2615.78 2168.16 2579.71 2168.19L2579.71 2168.19L2297.67 2168.44L2297.67 2168.44C2252.16 2168.48 2215.23 2131.61 2215.19 2086.1C2215.15 2040.58 2252.01 2003.65 2297.53 2003.61C2307.05 2003.6 2316.19 2005.21 2324.7 2008.17C2341.05 1978.49 2372.62 1958.37 2408.9 1958.34Z" fill="white" fill-opacity="0.1"/>
<path fill-rule="evenodd" clip-rule="evenodd" d="M2467.82 1094C2499.96 1094 2528.42 1109.77 2545.88 1134C2548.32 1133.79 2550.79 1133.68 2553.29 1133.68C2584.09 1133.68 2611.08 1150.04 2626.03 1174.54C2630.05 1173.76 2634.2 1173.36 2638.45 1173.36C2674.52 1173.36 2703.77 1202.6 2703.77 1238.68C2703.77 1274.75 2674.52 1304 2638.45 1304V1304H2356.41V1304C2310.9 1304 2274 1267.1 2274 1221.59C2274 1176.07 2310.9 1139.17 2356.41 1139.17C2365.93 1139.17 2375.08 1140.79 2383.59 1143.76C2399.96 1114.09 2431.54 1094 2467.82 1094Z" fill="white" fill-opacity="0.1"/>
<path fill-rule="evenodd" clip-rule="evenodd" d="M1176.82 1756C1208.96 1756 1237.42 1771.77 1254.88 1796C1257.32 1795.79 1259.79 1795.68 1262.29 1795.68C1293.09 1795.68 1320.08 1812.04 1335.03 1836.54C1339.05 1835.76 1343.2 1835.36 1347.45 1835.36C1383.52 1835.36 1412.77 1864.6 1412.77 1900.68C1412.77 1936.75 1383.52 1966 1347.45 1966V1966H1065.41V1966C1019.9 1966 983 1929.1 983 1883.59C983 1838.07 1019.9 1801.17 1065.41 1801.17C1074.93 1801.17 1084.08 1802.79 1092.59 1805.76C1108.96 1776.09 1140.54 1756 1176.82 1756Z" fill="white" fill-opacity="0.1"/>
<path fill-rule="evenodd" clip-rule="evenodd" d="M1355.62 1313.18C1358.61 1301.21 1358.69 1288.34 1355.27 1275.58C1344.53 1235.48 1303.31 1211.69 1263.22 1222.43C1240.47 1228.52 1222.98 1244.42 1214.05 1264.36C1198.55 1254.9 1179.35 1251.55 1160.43 1256.63C1135.37 1263.34 1117.27 1283.07 1111.45 1306.59C1105.93 1306.68 1100.33 1307.45 1094.75 1308.94C1058.07 1318.77 1036.31 1356.47 1046.14 1393.14C1055.96 1429.82 1093.66 1451.58 1130.34 1441.76C1142.51 1438.49 1153.04 1432.16 1161.32 1423.82C1178.12 1440.69 1203.24 1448.36 1227.89 1441.76C1241.7 1438.05 1253.41 1430.4 1262.1 1420.33C1279.2 1445.4 1310.85 1458.18 1341.82 1449.88C1381.02 1439.38 1404.28 1399.09 1393.77 1359.9C1388.11 1338.75 1373.78 1322.25 1355.62 1313.18Z" fill="white" fill-opacity="0.1"/>
<path fill-rule="evenodd" clip-rule="evenodd" d="M2259.71 1694.25C2259.48 1681.91 2256.2 1669.47 2249.58 1658.04C2228.76 1622.12 2182.77 1609.89 2146.86 1630.71C2126.49 1642.51 2113.73 1662.42 2110.31 1683.99C2092.88 1678.9 2073.48 1680.67 2056.53 1690.5C2034.08 1703.51 2021.75 1727.27 2022.26 1751.5C2016.95 1753.02 2011.74 1755.22 2006.74 1758.12C1973.9 1777.16 1962.7 1819.23 1981.74 1852.07C2000.79 1884.92 2042.85 1896.12 2075.7 1877.07C2086.61 1870.75 2095.12 1861.9 2100.94 1851.68C2121.56 1863.6 2147.8 1864.46 2169.89 1851.66C2182.26 1844.49 2191.56 1834.05 2197.33 1822.06C2220.37 1841.81 2254.26 1845.9 2282 1829.82C2317.11 1809.47 2329.07 1764.52 2308.72 1729.41C2297.74 1710.48 2279.6 1698.27 2259.71 1694.25Z" fill="white" fill-opacity="0.1"/>
<path fill-rule="evenodd" clip-rule="evenodd" d="M1832.62 1818.18C1835.61 1806.21 1835.69 1793.34 1832.27 1780.58C1821.53 1740.48 1780.31 1716.69 1740.22 1727.43C1717.47 1733.52 1699.98 1749.42 1691.05 1769.36C1675.55 1759.9 1656.35 1756.55 1637.43 1761.63C1612.37 1768.34 1594.27 1788.07 1588.45 1811.59C1582.93 1811.68 1577.33 1812.45 1571.75 1813.94C1535.07 1823.77 1513.31 1861.47 1523.14 1898.14C1532.96 1934.82 1570.66 1956.58 1607.34 1946.76C1619.51 1943.49 1630.04 1937.16 1638.32 1928.82C1655.12 1945.69 1680.24 1953.36 1704.89 1946.76C1718.7 1943.05 1730.41 1935.4 1739.1 1925.33C1756.2 1950.4 1787.85 1963.18 1818.82 1954.88C1858.02 1944.38 1881.28 1904.09 1870.77 1864.9C1865.11 1843.75 1850.78 1827.25 1832.62 1818.18Z" fill="white" fill-opacity="0.1"/>
<path fill-rule="evenodd" clip-rule="evenodd" d="M2141.62 1097.18C2144.61 1085.21 2144.69 1072.34 2141.27 1059.58C2130.53 1019.48 2089.31 995.687 2049.22 1006.43C2026.47 1012.52 2008.98 1028.42 2000.05 1048.36C1984.55 1038.9 1965.35 1035.55 1946.43 1040.63C1921.37 1047.34 1903.27 1067.07 1897.45 1090.59C1891.93 1090.68 1886.33 1091.45 1880.75 1092.94C1844.07 1102.77 1822.31 1140.47 1832.14 1177.14C1841.96 1213.82 1879.66 1235.58 1916.34 1225.76C1928.51 1222.49 1939.04 1216.16 1947.32 1207.82C1964.12 1224.69 1989.24 1232.36 2013.89 1225.76C2027.7 1222.05 2039.41 1214.4 2048.1 1204.33C2065.2 1229.4 2096.85 1242.18 2127.82 1233.88C2167.02 1223.38 2190.28 1183.09 2179.77 1143.9C2174.11 1122.75 2159.78 1106.25 2141.62 1097.18Z" fill="white" fill-opacity="0.1"/>
<path fill-rule="evenodd" clip-rule="evenodd" d="M2082.62 2327.18C2085.61 2315.21 2085.69 2302.34 2082.27 2289.58C2071.53 2249.48 2030.31 2225.69 1990.22 2236.43C1967.47 2242.52 1949.98 2258.42 1941.05 2278.36C1925.55 2268.9 1906.35 2265.55 1887.43 2270.63C1862.37 2277.34 1844.27 2297.07 1838.45 2320.59C1832.93 2320.68 1827.33 2321.45 1821.75 2322.94C1785.07 2332.77 1763.31 2370.47 1773.14 2407.14C1782.96 2443.82 1820.66 2465.58 1857.34 2455.76C1869.51 2452.49 1880.04 2446.16 1888.32 2437.82C1905.12 2454.69 1930.24 2462.36 1954.89 2455.76C1968.7 2452.05 1980.41 2444.4 1989.1 2434.33C2006.2 2459.4 2037.85 2472.18 2068.82 2463.88C2108.02 2453.38 2131.28 2413.09 2120.77 2373.9C2115.11 2352.75 2100.78 2336.25 2082.62 2327.18Z" fill="white" fill-opacity="0.1"/>
</svg>
